<svg width="311" height="322" viewBox="0 0 311 322" fill="none" xmlns="http://www.w3.org/2000/svg">
<mask id="mask0" mask-type="alpha" maskUnits="userSpaceOnUse" x="0" y="0" width="311" height="322">
<path d="M113 66.0558C113 63.1074 113.88 60.2253 115.528 57.7738C117.176 55.3223 119.519 53.4116 122.26 52.2833C125.001 51.155 128.017 50.8598 130.926 51.435C133.836 52.0102 136.509 53.43 138.607 55.5148C140.704 57.5996 142.133 60.2558 142.712 63.1476C143.291 66.0393 142.994 69.0366 141.858 71.7606C140.723 74.4845 138.8 76.8127 136.334 78.4507C133.867 80.0888 130.967 80.9631 128 80.9631C124.022 80.9631 120.206 79.3925 117.393 76.5968C114.58 73.8012 113 70.0095 113 66.0558V66.0558Z" fill="#EE3124"/>
<path d="M182.71 77.2363V68.5006C182.695 54.4034 178.308 40.6533 170.148 29.1227C161.987 17.592 150.449 8.84115 137.104 4.06158C123.759 -0.718004 109.257 -1.294 95.5706 2.41202C81.8846 6.11805 69.6805 13.926 60.62 24.7727L0 81.2413L44.73 121.729V142.55C44.6853 158.847 47.8936 174.99 54.1692 190.047C60.4447 205.103 69.6628 218.772 81.29 230.264C87.7079 236.632 94.7952 242.296 102.43 247.159V309.601C102.43 312.745 103.687 315.761 105.924 317.984C108.162 320.208 111.196 321.457 114.36 321.457C117.524 321.457 120.558 320.208 122.796 317.984C125.033 315.761 126.29 312.745 126.29 309.601V258.916C154.765 269.274 186.045 269.069 214.38 258.339V309.571C214.47 312.654 215.766 315.582 217.992 317.732C220.219 319.881 223.201 321.084 226.305 321.084C229.409 321.084 232.391 319.881 234.618 317.732C236.844 315.582 238.14 312.654 238.23 309.571V246.165C245.275 241.528 251.834 236.201 257.81 230.264C280.927 207.413 294.058 176.433 294.36 144.031L310.76 77.2561L182.71 77.2363ZM35.15 80.9929L44.73 72.0485V89.6689L35.15 80.9929ZM270.52 141.119V142.55C270.848 155.933 268.479 169.247 263.553 181.707C258.626 194.167 251.241 205.521 241.833 215.102C232.424 224.683 221.183 232.297 208.769 237.495C196.355 242.694 183.021 245.372 169.55 245.372C156.079 245.372 142.745 242.694 130.331 237.495C117.917 232.297 106.676 224.683 97.2672 215.102C87.8588 205.521 80.4739 194.167 75.5472 181.707C70.6206 169.247 68.2517 155.933 68.58 142.55V68.5006C68.5749 58.5306 71.9221 48.8448 78.09 40.9818L80.09 39.1631L79.86 38.9147C85.9145 32.0677 93.9244 27.2166 102.823 25.0076C111.721 22.7986 121.086 23.3365 129.669 26.5497C138.252 29.7629 145.646 35.4988 150.867 42.9934C156.087 50.488 158.886 59.3855 158.89 68.5006L158.8 100.969H280.4L270.52 141.119Z" fill="#EE3124"/>
</mask>
<g mask="url(#mask0)">
<rect width="311" height="321" fill="white"/>
</g>
</svg>
