<svg width="253" height="192" viewBox="0 0 253 192" fill="none" xmlns="http://www.w3.org/2000/svg">
<mask id="mask0" mask-type="alpha" maskUnits="userSpaceOnUse" x="0" y="0" width="253" height="192">
<path d="M121.22 81.8445C110.037 82.0068 99.2466 77.7231 91.22 69.9345C87.4299 66.163 84.4305 61.6731 82.3974 56.7278C80.3644 51.7825 79.3385 46.4812 79.38 41.1345V40.9245C79.36 18.0045 97.84 0.00451027 121.43 0.00451027C132.613 -0.158922 143.404 4.12496 151.43 11.9145C155.22 15.686 158.219 20.1759 160.253 25.1212C162.286 30.0665 163.311 35.3678 163.27 40.7145V40.9245C163.28 63.8745 144.81 81.8445 121.22 81.8445ZM121.43 6.63451C101.23 6.63451 86 21.3745 86 40.9245V41.1345C86 60.5645 101.15 75.2145 121.23 75.2145C141.31 75.2145 156.66 60.4745 156.66 40.9245V40.7145C156.65 21.2845 141.51 6.63451 121.43 6.63451V6.63451ZM121.43 67.0945C107.21 67.0945 96.09 55.5945 96.09 40.9245V40.7145C96.09 25.9145 106.89 14.7145 121.22 14.7145C135.55 14.7145 146.55 26.2145 146.55 40.8845V41.0945C146.55 55.9345 135.75 67.0945 121.43 67.0945V67.0945ZM121.22 21.3845C110.5 21.3845 102.72 29.5145 102.72 40.7145V40.9245C102.72 52.0645 110.72 60.4645 121.43 60.4645C132.14 60.4645 139.93 52.3345 139.93 41.1345V40.9245C139.93 29.7845 131.89 21.3845 121.22 21.3845V21.3845Z" fill="#EE3124"/>
<path d="M202.3 36.8645V15.4845H247.95V22.1145H208.93V30.2345H247.95V36.8645H202.3Z" fill="#EE3124"/>
<path d="M186.41 80.5945V1.25452H247.95V7.88452H193.03V73.9745H247.95V80.5945H186.41Z" fill="#EE3124"/>
<path d="M202.3 66.3645V44.4645H247.95V51.0945H208.93V59.7345H247.95V66.3645H202.3Z" fill="#EE3124"/>
<path d="M135.15 190.825L104.89 151.185V190.825H98.26V131.545L138.44 184.195H147.09V111.535H153.72V190.825H135.15Z" fill="#EE3124"/>
<path d="M82.47 190.825V111.555H102.18L131.3 149.815V111.535H137.92V169.475L98.9 118.185H89.1V190.825H82.47Z" fill="#EE3124"/>
<path d="M196.06 190.825V161.005H213.72L233.85 190.825H225.89L210.17 167.635H202.69V190.825H196.06Z" fill="#EE3124"/>
<path d="M180.06 190.825V111.555H216.62C235.62 111.555 247.36 122.025 247.36 138.865V139.075C247.36 149.465 242.95 157.514 234.62 162.374L233.45 163.055L252.45 190.825H244.45L223.33 160.005L227.33 158.525C236.24 155.225 240.75 148.694 240.75 139.094V138.885C240.75 125.745 231.96 118.204 216.64 118.204H186.69V190.844L180.06 190.825Z" fill="#EE3124"/>
<path d="M196.06 153.505V126.005H215.27C225.21 126.005 231.15 131.125 231.15 139.705V139.915C231.15 148.055 224.9 153.515 215.58 153.515L196.06 153.505ZM202.69 146.875H215.58C223.36 146.875 224.53 142.505 224.53 139.875V139.665C224.53 137.915 224.53 132.595 215.27 132.595H202.69V146.875Z" fill="#EE3124"/>
<path d="M28.19 191.945C17.48 191.945 8.62 187.875 1.87 179.855L0 177.655L4.18 173.065L9.73 178.515C14.8 183.105 20.81 185.315 28.17 185.315C42.65 185.315 50.62 177.195 50.62 162.445V111.535H57.25V162.445C57.27 180.915 46.4 191.945 28.19 191.945Z" fill="#EE3124"/>
<path d="M27.78 177.085C23.41 177.085 19.41 175.485 15.54 172.185L10 166.595L14.51 161.595L16.97 164.315C20.91 168.645 24.16 170.495 27.82 170.495C31.01 170.495 34.27 169.495 34.27 161.765V111.535H40.89V161.725C40.85 171.485 36.09 177.085 27.78 177.085Z" fill="#EE3124"/>
<path d="M28.17 81.6345C17.46 81.6345 8.6 77.5745 1.85 69.5545L0 67.3545L4.18 62.7545L9.73 68.2145C14.8 72.7945 20.82 75.0045 28.17 75.0045C42.65 75.0045 50.63 66.8845 50.63 52.1445V1.19452H57.25V52.1945C57.25 70.6145 46.38 81.6345 28.17 81.6345Z" fill="#EE3124"/>
<path d="M27.76 66.7845C23.4 66.7845 19.39 65.1745 15.53 61.8745L9.94 56.2945L14.45 51.2945L16.91 54.0045C20.86 58.3445 24.1 60.1945 27.76 60.1945C30.95 60.1945 34.21 59.1945 34.21 51.4545V1.19452H40.84V51.4145C40.84 61.1845 36.07 66.7845 27.76 66.7845Z" fill="#EE3124"/>
</mask>
<g mask="url(#mask0)">
<rect width="252" height="192" fill="white"/>
</g>
</svg>
